<svg xmlns="http://www.w3.org/2000/svg" width="200" height="60" viewBox="0 0 200 60" fill="none">
  <path d="M45 10H15C12.2386 10 10 12.2386 10 15V45C10 47.7614 12.2386 50 15 50H45C47.7614 50 50 47.7614 50 45V15C50 12.2386 47.7614 10 45 10Z" fill="#4CAF50"/>
  <path d="M29.8 20L20 40H26L35.8 20H29.8Z" fill="white"/>
  <path d="M70 20L60 40H66L76 20H70Z" fill="#4CAF50"/>
  <path d="M65 33.5C65 29.9101 67.9101 27 71.5 27H77.5C81.0899 27 84 29.9101 84 33.5C84 37.0899 81.0899 40 77.5 40H71.5C67.9101 40 65 37.0899 65 33.5Z" fill="#4CAF50"/>
  <path d="M71.5 35C70.6716 35 70 34.3284 70 33.5C70 32.6716 70.6716 32 71.5 32H77.5C78.3284 32 79 32.6716 79 33.5C79 34.3284 78.3284 35 77.5 35H71.5Z" fill="white"/>
  <path d="M85 20H95V40H90V25H85V20Z" fill="#4CAF50"/>
  <path d="M96 33.5C96 29.9101 98.9101 27 102.5 27C106.09 27 109 29.9101 109 33.5C109 37.0899 106.09 40 102.5 40C98.9101 40 96 37.0899 96 33.5Z" fill="#4CAF50"/>
  <path d="M102.5 35C101.672 35 101 34.3284 101 33.5C101 32.6716 101.672 32 102.5 32C103.328 32 104 32.6716 104 33.5C104 34.3284 103.328 35 102.5 35Z" fill="white"/>
  <text x="115" y="35" font-family="Arial" font-size="20" font-weight="bold" fill="#4CAF50">ZAFO</text>
</svg> 